<svg width="68" height="53" viewBox="0 0 68 53" fill="none" xmlns="http://www.w3.org/2000/svg">
<path d="M65.875 43.46H8.5V3.18C8.5 2.12 7.4375 1.06 6.375 1.06H2.125C0.929688 1.06 0 2.12 0 3.18V47.7C0 50.085 1.85938 51.94 4.25 51.94H65.875C66.9375 51.94 68 51.0125 68 49.82V45.58C68 44.52 66.9375 43.46 65.875 43.46ZM61.625 5.3H45.8203C43.0312 5.3 41.5703 8.745 43.5625 10.7325L47.9453 15.105L38.25 24.7775L28.4219 15.105C26.8281 13.3825 24.0391 13.3825 22.4453 15.105L13.2812 24.2475C12.4844 25.0425 12.4844 26.3675 13.2812 27.1625L16.3359 30.21C17.1328 31.005 18.4609 31.005 19.2578 30.21L25.5 24.115L35.1953 33.7875C36.7891 35.51 39.5781 35.51 41.1719 33.7875L53.9219 21.0675L58.3047 25.44C60.2969 27.4275 63.6172 25.97 63.6172 23.1875V7.42C63.75 6.36 62.6875 5.3 61.625 5.3Z" fill="#1DE7D9"/>
</svg>
