<svg width="77" height="68" viewBox="0 0 77 68" fill="currentColor" xmlns="http://www.w3.org/2000/svg">
<g clip-path="url(#clip0_5_151)">
<path d="M44.9167 59.5H2.13889C0.935764 59.5 0 60.5625 0 61.625V65.875C0 67.0703 0.935764 68 2.13889 68H44.9167C45.9861 68 47.0556 67.0703 47.0556 65.875V61.625C47.0556 60.5625 45.9861 59.5 44.9167 59.5ZM72.7222 17V10.625C72.7222 9.5625 71.6528 8.5 70.5833 8.5C69.3802 8.5 68.4444 9.5625 68.4444 10.625V17H64.1667V10.625C64.1667 9.5625 63.0972 8.5 62.0278 8.5C60.8246 8.5 59.8889 9.5625 59.8889 10.625V17H57.75C56.5469 17 55.6111 18.0625 55.6111 19.125V23.375C55.6111 28.1562 58.6858 32.1406 63.0972 33.4688V49.2734C63.0972 51.1328 61.7604 52.8594 59.8889 53.125C57.6163 53.5234 55.6111 51.6641 55.6111 49.4062V45.6875C55.6111 39.3125 50.2639 34 43.8472 34H42.7778V8.5C42.7778 3.85156 38.901 0 34.2222 0H12.8333C8.02083 0 4.27778 3.85156 4.27778 8.5V55.25H42.7778V40.375H43.8472C46.7882 40.375 49.1944 42.7656 49.1944 45.6875V49.0078C49.1944 54.3203 52.9375 58.9688 58.2847 59.5C64.3003 60.1641 69.5139 55.3828 69.5139 49.4062V33.4688C73.7917 32.1406 77 28.1562 77 23.375V19.125C77 18.0625 75.9306 17 74.8611 17H72.7222ZM34.7569 23.375L22.191 41.8359C21.9236 42.3672 21.3889 42.5 20.8542 42.5C19.7847 42.5 18.9826 41.7031 19.25 40.9062L22.3247 29.75H14.4375C13.3681 29.75 12.6997 29.0859 12.8333 28.2891L14.9722 14.0781C14.9722 13.2812 15.6406 12.75 16.5764 12.75H25.6667C26.6024 12.75 27.4045 13.6797 27.1372 14.6094L25.6667 21.25H33.2865C34.4896 21.25 35.2917 22.4453 34.7569 23.375Z" fill="#1DE7D9"/>
</g>
<defs>
<clipPath id="clip0_5_151">
<rect width="77" height="68" fill="white"/>
</clipPath>
</defs>
</svg>
