<svg xmlns="http://www.w3.org/2000/svg" width="60" height="42" viewBox="0 0 60 42" fill="none">
  <path fill-rule="evenodd" clip-rule="evenodd" d="M45 0C43.3431 0 42 1.02923 42 2.29885V33.5305L35.1213 28.2595C33.9497 27.3618 32.0503 27.3618 30.8787 28.2595C29.7071 29.1573 29.7071 30.6128 30.8787 31.5106L42.8787 40.706C44.0503 41.6037 45.9497 41.6037 47.1213 40.706L59.1213 31.5106C60.2929 30.6128 60.2929 29.1573 59.1213 28.2595C57.9497 27.3618 56.0503 27.3618 54.8787 28.2595L48 33.5305V2.29885C48 1.02923 46.6569 0 45 0ZM17.1213 0.673318C15.9497 -0.224439 14.0503 -0.224439 12.8787 0.673318L0.878681 9.86872C-0.292896 10.7665 -0.292896 12.222 0.878681 13.1198C2.05025 14.0175 3.94975 14.0175 5.12132 13.1198L12 7.84877V39.0805C12 40.3501 13.3431 41.3793 15 41.3793C16.6568 41.3793 18 40.3501 18 39.0805V7.84877L24.8787 13.1198C26.0503 14.0175 27.9497 14.0175 29.1213 13.1198C30.2929 12.222 30.2929 10.7665 29.1213 9.86872L17.1213 0.673318Z" fill="white"/>
</svg>