<svg xmlns="http://www.w3.org/2000/svg" width="50" height="50" viewBox="0 0 50 50" fill="none">
  <path fill-rule="evenodd" clip-rule="evenodd" d="M50 25C50 38.8072 38.8074 50 25.0004 50C11.1932 50 0 38.8072 0 25C0 11.1928 11.1932 0 25.0004 0C38.8074 0 50 11.1928 50 25Z" fill="#29296E"/>
  <path fill-rule="evenodd" clip-rule="evenodd" d="M36.6763 18.2628L36.0513 16.3318C35.9243 15.9389 35.6142 15.6334 35.2201 15.5129L33.2795 14.916C33.0109 14.834 33.0087 14.4551 33.2752 14.3687L35.2069 13.7436C35.599 13.6166 35.9045 13.3066 36.0258 12.9123L36.6219 10.9718C36.7039 10.7038 37.0828 10.701 37.1692 10.9681L37.7943 12.8993C37.9213 13.2914 38.2313 13.5969 38.6254 13.7182L40.5658 14.3143C40.8345 14.3969 40.8374 14.7752 40.5702 14.8616L38.6384 15.4866C38.2465 15.6137 37.9408 15.9245 37.8197 16.3186L37.2236 18.2585C37.1416 18.5271 36.7627 18.5301 36.6763 18.2628Z" fill="#FAFAFA"/>
  <path fill-rule="evenodd" clip-rule="evenodd" d="M2.30859 24.5238C2.90671 23.3282 4.08957 22.4274 5.31857 21.8582C6.55995 21.2948 7.92489 20.9491 9.26523 20.8369C11.9713 20.5875 14.6074 21.0493 17.0088 21.8475C18.246 22.2236 19.353 22.7458 20.4964 23.2736C21.0522 23.5464 21.5745 23.8558 22.1125 24.1545L23.5986 25.0333C25.23 26.0537 26.8119 26.9574 28.298 27.6594C29.7877 28.3554 31.134 28.8262 32.403 29.0665C33.6722 29.31 34.9619 29.307 36.5482 28.9355C38.1219 28.5724 39.8924 27.7892 41.7432 26.7845C43.6052 25.7792 45.5147 24.5465 47.6932 23.3418C47.4747 25.8596 46.7763 28.2205 45.6857 30.5003C44.5681 32.7527 43.0138 34.9499 40.7476 36.7293C38.5245 38.523 35.4715 39.7732 32.3636 39.9612C29.2543 40.1756 26.2963 39.4766 23.7797 38.4252C21.2536 37.3584 19.0707 35.9566 17.136 34.4092C16.6017 33.9817 16.3148 33.739 15.9204 33.3987L14.8186 32.4139C14.0762 31.821 13.357 31.112 12.6221 30.5246C11.1562 29.2744 9.70589 28.022 8.11582 26.9361C7.3141 26.3843 6.48718 25.8726 5.54949 25.4191C5.08365 25.2001 4.58882 24.996 4.05762 24.8353C3.51375 24.6541 2.96095 24.5465 2.30859 24.5238Z" fill="#FF4F0A"/>
  <path fill-rule="evenodd" clip-rule="evenodd" d="M2.30859 24.6581C2.61397 22.1019 3.79757 19.7041 5.69445 17.6631C7.58161 15.6418 10.5298 14.0835 13.8013 13.877C15.4158 13.7685 17.055 13.9497 18.5617 14.37C20.0618 14.7891 21.4675 15.3994 22.7345 16.1184C23.3675 16.4797 23.9597 16.8747 24.5495 17.2734L26.1217 18.4719L28.5759 20.4215C30.1687 21.6985 31.689 22.8799 33.094 23.8553C34.5125 24.8324 35.7205 25.546 36.8745 25.9643C38.0179 26.4206 39.4622 26.5374 41.3717 26.0541C42.3198 25.8341 43.3087 25.4325 44.3637 24.9971C45.413 24.551 46.5022 24.0192 47.6932 23.4918C47.5499 24.7771 47.2905 26.0571 46.7979 27.2534C46.3247 28.466 45.7013 29.6524 44.8298 30.7589C44.3839 31.2976 43.9061 31.8393 43.3489 32.3389C42.7917 32.8268 42.1743 33.2898 41.4921 33.696C40.1318 34.4899 38.5179 35.0696 36.8625 35.2761C35.207 35.4855 33.545 35.3808 32.0315 35.0575C30.5098 34.7433 29.1235 34.2369 27.8507 33.6519C25.314 32.4639 23.1921 30.9707 21.316 29.3899C20.3739 28.6006 19.4904 27.7761 18.6539 26.9392L17.6656 25.9403C17.3677 25.6509 17.0668 25.3598 16.7689 25.0935C15.5681 24.0244 14.4537 23.2076 13.2263 22.6981C12.0077 22.1647 10.4482 21.9455 8.53488 22.306C6.62913 22.6629 4.53824 23.4926 2.30859 24.6581Z" fill="#FAFAFA"/>
  <path fill-rule="evenodd" clip-rule="evenodd" d="M12.3074 37.6921C12.3074 38.5416 11.6182 39.2306 10.7685 39.2306C9.91882 39.2306 9.23047 38.5416 9.23047 37.6921C9.23047 36.8427 9.91882 36.1537 10.7685 36.1537C11.6182 36.1537 12.3074 36.8427 12.3074 37.6921Z" fill="#FAFAFA"/>
  <path fill-rule="evenodd" clip-rule="evenodd" d="M12.3074 37.6921C12.3074 38.5416 11.6182 39.2306 10.7685 39.2306C9.91882 39.2306 9.23047 38.5416 9.23047 37.6921C9.23047 36.8427 9.91882 36.1537 10.7685 36.1537C11.6182 36.1537 12.3074 36.8427 12.3074 37.6921Z" fill="#FAFAFA"/>
</svg>